<svg height="489pt" viewBox="-6 0 489 489.47" width="489pt" xmlns="http://www.w3.org/2000/svg"><path d="m26.214844 489.46875h199.777344c14.339843-.015625 25.960937-11.636719 25.980468-25.976562v-13.523438l143.21875-1.246094.179688 24.449219c.070312 7.894531 6.484375 14.257813 14.375 14.269531h.109375l25.433593-.1875c7.9375-.070312 14.320313-6.546875 14.269532-14.484375l-.183594-24.910156c10.574219-2.082031 18.242188-11.289063 18.382812-22.066406l9.648438-77.398438c.035156-.261719.050781-.523437.046875-.789062-.007813-9.851563-3.582031-19.367188-10.0625-26.785157-5.667969-6.550781-13.617187-10.703124-22.234375-11.613281l-31.613281-57.257812c-9.570313-16.871094-23.476563-36.203125-46.320313-36.203125h-.296875l-49.484375.476562c-2.9375-15.773437-16.6875-27.21875-32.730468-27.242187h-32.738282v-42.140625c-.019531-14.339844-11.640625-25.960938-25.980468-25.976563h-23.964844v-21.550781l54.113281.863281c1.609375.035157 3.164063-.585937 4.304687-1.726562 1.144532-1.125 1.789063-2.667969 1.789063-4.273438v-58.074219c-.023437-19.929687-16.175781-36.0781245-36.105469-36.101562h-139.984375c-19.851562.0234375-35.941406 16.109375-35.964843 35.964844v84.898437h-23.964844c-14.34375.015625-25.964844 11.636719-25.980469 25.976563v316.652344c.015625 14.339843 11.636719 25.960937 25.980469 25.976562zm408.984375-14.214844-25.433594.1875h-.015625c-1.304688-.003906-2.367188-1.054687-2.378906-2.359375l-.179688-24.464843 30.1875-.261719.179688 24.5c.011718 1.3125-1.042969 2.386719-2.359375 2.398437zm23.207031-146.480468c4.445312 5.167968 6.9375 11.730468 7.042969 18.542968l-9.644531 77.355469c-.035157.257813-.050782.519531-.046876.785156.035157 5.9375-4.742187 10.785157-10.683593 10.832031l-193.097657 1.679688v-115.296875l189.527344-1.65625v.011719h.164063c6.441406.03125 12.546875 2.859375 16.738281 7.746094zm-125.929688-18.804688c2.191407-13.863281 14.085938-24.113281 28.121094-24.238281 14.035156-.121094 26.105469 9.914062 28.542969 23.738281zm34.550782-82.21875h.210937c13.15625 0 23.898438 9.023438 35.835938 30.058594l28.316406 51.300781-30.136719.261719c-2.558594-20.359375-19.875-35.636719-40.394531-35.636719h-.308594c-20.671875.179687-37.9375 15.792969-40.1875 36.339844l-68.390625.597656v-81.820313zm-82.316406-26.765625c9.464843.011719 17.785156 6.269531 20.433593 15.355469l-53.171875.511718v-15.867187zm-82.683594-38.152344h7.976562v47.933594h-7.976562zm48.207031-126.730469v51.976563l-48.207031-.769531v-51.207032c0-13.3125 10.789062-24.105468 24.101562-24.105468s24.105469 10.792968 24.105469 24.105468zm-188.054687-.136718c.015624-13.230469 10.734374-23.953125 23.964843-23.96875h113.132813c-5.960938 6.609375-9.257813 15.199218-9.25 24.101562v174.667969h-127.847656zm-19.980469 174.796875v-47.929688h7.980469v47.933594zm-29.964844-63.921875c.007813-7.714844 6.261719-13.96875 13.980469-13.976563h23.964844v17.96875h-13.980469c-3.3125 0-6 2.6875-6 6v59.933594c0 3.316406 2.6875 6 6 6h179.800781c3.316406 0 6-2.683594 6-6v-59.933594c0-3.3125-2.683594-6-6-6h-13.972656v-17.96875h23.964844c7.714843.007813 13.96875 6.261719 13.980468 13.976563v316.652344c-.011718 7.714843-6.265625 13.96875-13.980468 13.976562h-199.777344c-7.71875-.007812-13.972656-6.261719-13.980469-13.976562zm0 0"/><path d="m36.199219 307.671875h39.957031c3.316406 0 6-2.6875 6-6v-39.957031c0-3.316406-2.683594-6-6-6h-39.957031c-3.3125 0-6 2.683594-6 6v39.957031c0 3.3125 2.6875 6 6 6zm6-39.957031h27.957031v27.957031h-27.957031zm0 0"/><path d="m103.128906 307.671875h39.957032c3.3125 0 6-2.6875 6-6v-39.957031c0-3.316406-2.6875-6-6-6h-39.957032c-3.316406 0-6 2.683594-6 6v39.957031c0 3.3125 2.683594 6 6 6zm6-39.957031h27.957032v27.957031h-27.957032zm0 0"/><path d="m176.042969 307.671875h39.960937c3.3125 0 6-2.6875 6-6v-39.957031c0-3.316406-2.6875-6-6-6h-39.960937c-3.3125 0-6 2.683594-6 6v39.957031c0 3.3125 2.6875 6 6 6zm6-39.957031h27.960937v27.957031h-27.960937zm0 0"/><path d="m36.199219 377.59375h39.957031c3.316406 0 6-2.6875 6-6v-39.960938c0-3.3125-2.683594-6-6-6h-39.957031c-3.3125 0-6 2.6875-6 6v39.960938c0 3.3125 2.6875 6 6 6zm6-39.957031h27.957031v27.957031h-27.957031zm0 0"/><path d="m103.128906 377.59375h39.957032c3.3125 0 6-2.6875 6-6v-39.960938c0-3.3125-2.6875-6-6-6h-39.957032c-3.316406 0-6 2.6875-6 6v39.960938c0 3.3125 2.683594 6 6 6zm6-39.957031h27.957032v27.957031h-27.957032zm0 0"/><path d="m176.042969 377.59375h39.960937c3.3125 0 6-2.6875 6-6v-39.960938c0-3.3125-2.6875-6-6-6h-39.960937c-3.3125 0-6 2.6875-6 6v39.960938c0 3.3125 2.6875 6 6 6zm6-39.957031h27.960937v27.957031h-27.960937zm0 0"/><path d="m36.199219 447.515625h39.957031c3.316406 0 6-2.6875 6-6v-39.953125c0-3.316406-2.683594-6-6-6h-39.957031c-3.3125 0-6 2.683594-6 6v39.953125c0 3.3125 2.6875 6 6 6zm6-39.953125h27.957031v27.953125h-27.957031zm0 0"/><path d="m103.128906 447.515625h39.957032c3.3125 0 6-2.6875 6-6v-39.953125c0-3.316406-2.6875-6-6-6h-39.957032c-3.316406 0-6 2.683594-6 6v39.953125c0 3.3125 2.683594 6 6 6zm6-39.953125h27.957032v27.953125h-27.957032zm0 0"/><path d="m176.042969 447.515625h39.960937c3.3125 0 6-2.6875 6-6v-39.953125c0-3.316406-2.6875-6-6-6h-39.960937c-3.3125 0-6 2.683594-6 6v39.953125c0 3.3125 2.6875 6 6 6zm6-39.953125h27.960937v27.953125h-27.960937zm0 0"/><path d="m93.105469 180.117188c-.035157 0-.070313 0-.105469 0s-.070312 0-.105469 0c-4.867187-.0625-8.78125-4.019532-8.789062-8.886719 0-3.3125-2.683594-6-6-6-3.3125 0-6 2.6875-6 6 .015625 9.21875 6.066406 17.34375 14.894531 20v3.746093c0 3.316407 2.683594 6 6 6 3.3125 0 6-2.683593 6-6v-3.742187c9.933594-2.972656 16.183594-12.785156 14.679688-23.046875-1.503907-10.257812-10.308594-17.863281-20.679688-17.855469-4.910156 0-8.894531-3.980469-8.894531-8.890625s3.984375-8.890625 8.894531-8.890625 8.890625 3.980469 8.890625 8.890625c0 3.3125 2.6875 6 6 6s6-2.6875 6-6c-.015625-9.21875-6.0625-17.34375-14.890625-20v-3.070312c0-3.316406-2.6875-6-6-6-3.316406 0-6 2.683594-6 6v3.070312c-9.941406 2.96875-16.195312 12.78125-14.6875 23.042969 1.503906 10.265625 10.3125 17.867187 20.6875 17.855469 4.878906.015625 8.835938 3.957031 8.863281 8.839844.03125 4.878906-3.878906 8.867187-8.757812 8.941406zm0 0"/><path d="m159.722656 71.460938h12.441406c3.3125 0 6-2.683594 6-6 0-3.3125-2.6875-6-6-6h-12.441406c-3.316406 0-6 2.6875-6 6 0 3.316406 2.683594 6 6 6zm0 0"/><path d="m78.105469 71.460938h60.121093c3.3125 0 6-2.683594 6-6 0-3.3125-2.6875-6-6-6h-60.121093c-3.3125 0-6 2.6875-6 6 0 3.316406 2.6875 6 6 6zm0 0"/><path d="m149.730469 190.800781h22.433593c3.3125 0 6-2.6875 6-6 0-3.316406-2.6875-6-6-6h-22.433593c-3.3125 0-6 2.683594-6 6 0 3.3125 2.6875 6 6 6zm0 0"/><path d="m133.09375 178.800781h-3.339844c-3.3125 0-6 2.683594-6 6 0 3.3125 2.6875 6 6 6h3.339844c3.316406 0 6-2.6875 6-6 0-3.316406-2.683594-6-6-6zm0 0"/><path d="m78.105469 101.433594h60.121093c3.3125 0 6-2.6875 6-6s-2.6875-6-6-6h-60.121093c-3.3125 0-6 2.6875-6 6s2.6875 6 6 6zm0 0"/><path d="m159.722656 41.496094h12.441406c3.3125 0 6-2.6875 6-6 0-3.316406-2.6875-6-6-6h-12.441406c-3.316406 0-6 2.683594-6 6 0 3.3125 2.683594 6 6 6zm0 0"/><path d="m78.105469 41.496094h60.121093c3.3125 0 6-2.6875 6-6 0-3.316406-2.6875-6-6-6h-60.121093c-3.3125 0-6 2.683594-6 6 0 3.3125 2.6875 6 6 6zm0 0"/><path d="m420.003906 354.742188h-.175781c-12.851563.117187-23.195313 10.59375-23.148437 23.445312.042968 12.855469 10.464843 23.257812 23.316406 23.28125h.175781c12.898437-.109375 23.273437-10.640625 23.191406-23.535156-.109375-12.828125-10.53125-23.175782-23.359375-23.191406zm.082032 34.726562h-.085938c-6.238281-.03125-11.285156-5.085938-11.304688-11.320312-.023437-6.238282 4.984376-11.328126 11.222657-11.40625h.085937c6.273438-.019532 11.378906 5.046874 11.402344 11.324218.023438 6.273438-5.046875 11.378906-11.320312 11.402344zm0 0"/><path d="m358.117188 357.816406h-.042969c-3.316407.023438-5.984375 2.730469-5.957031 6.046875l.117187 16c.023437 3.296875 2.703125 5.953125 6 5.953125h.042969c3.316406-.023437 5.980468-2.726562 5.957031-6.042968l-.117187-16c-.023438-3.296876-2.703126-5.957032-6-5.957032zm0 0"/><path d="m269.214844 358.472656h-.046875c-3.3125.023438-5.980469 2.730469-5.953125 6.046875l.117187 16c.023438 3.296875 2.703125 5.953125 6 5.953125h.042969c3.316406-.023437 5.980469-2.730468 5.957031-6.042968l-.117187-16c-.023438-3.296876-2.703125-5.957032-6-5.957032zm0 0"/><path d="m298.804688 358.253906c-3.316407.023438-5.984376 2.730469-5.960938 6.046875l.117188 16c.027343 3.292969 2.703124 5.953125 6 5.953125h.046874c3.3125-.023437 5.980469-2.730468 5.957032-6.042968l-.121094-16c-.039062-3.304688-2.734375-5.960938-6.039062-5.957032zm0 0"/><path d="m328.484375 358.03125h-.046875c-3.3125.027344-5.980469 2.730469-5.957031 6.046875l.121093 16c.023438 3.296875 2.703126 5.953125 6 5.953125h.042969c3.3125-.023438 5.980469-2.730469 5.957031-6.042969l-.117187-16c-.027344-3.296875-2.707031-5.957031-6-5.957031zm0 0"/></svg>