<svg id="_001-route" data-name="001-route" xmlns="http://www.w3.org/2000/svg" width="480" height="480" viewBox="0 0 480 480">
  <path id="Path_31" data-name="Path 31" d="M128,304a40,40,0,1,1-40-40A40,40,0,0,1,128,304Zm0,0" fill="#78b9eb"/>
  <path id="Path_32" data-name="Path 32" d="M392,8a80,80,0,0,0-80,80c0,44.16,80,152,80,152s80-107.84,80-152A80,80,0,0,0,392,8Zm0,40a40,40,0,1,1-40,40A40,40,0,0,1,392,48Zm0,0" fill="#78b9eb"/>
  <g id="Group_8" data-name="Group 8">
    <path id="Path_33" data-name="Path 33" d="M88,216A88.054,88.054,0,0,0,0,304c0,46.32,78.238,152.32,81.6,156.8a8,8,0,0,0,12.8,0C97.762,456.32,176,350.32,176,304A88.054,88.054,0,0,0,88,216Zm0,16a72.114,72.114,0,0,1,72,72c0,31.121-47.2,103.6-72,138.4C63.2,407.6,16,335.121,16,304A72.114,72.114,0,0,1,88,232Zm0,0" fill="#1a6fb0"/>
    <path id="Path_34" data-name="Path 34" d="M88,256a48,48,0,1,0,48,48A48,48,0,0,0,88,256Zm0,80a32,32,0,1,1,32-32A32,32,0,0,1,88,336Zm0,0" fill="#1a6fb0"/>
    <path id="Path_35" data-name="Path 35" d="M392,0a88.054,88.054,0,0,0-88,88c0,46.32,78.238,152.32,81.6,156.8a8,8,0,0,0,12.8,0C401.762,240.32,480,134.32,480,88A88.054,88.054,0,0,0,392,0Zm0,16a72.114,72.114,0,0,1,72,72c0,31.121-47.2,103.6-72,138.4C367.2,191.6,320,119.121,320,88A72.114,72.114,0,0,1,392,16Zm0,0" fill="#1a6fb0"/>
    <path id="Path_36" data-name="Path 36" d="M392,40a48,48,0,1,0,48,48A48,48,0,0,0,392,40Zm0,80a32,32,0,1,1,32-32A32,32,0,0,1,392,120Zm0,0" fill="#1a6fb0"/>
    <path id="Path_37" data-name="Path 37" d="M290.352,262.4A71.736,71.736,0,0,0,264,318.07V376a88.1,88.1,0,0,1-88,88H104v16h72A104.12,104.12,0,0,0,280,376V318.07A56,56,0,0,1,346.984,263.2L390.4,271.84l3.137-15.68L350.1,247.473A71.81,71.81,0,0,0,290.352,262.4Zm0,0" fill="#1a6fb0"/>
  </g>
</svg>
