<svg height="512pt" viewBox="0 -13 512.16504 512" width="512pt" xmlns="http://www.w3.org/2000/svg"><path d="m461.558594 47.425781c3.066406-1.917969 5.683594-4.472656 7.679687-7.492187 7.726563-11.808594 4.460938-27.640625-7.304687-35.429688-7.234375-4.789062-16.410156-5.570312-24.351563-2.074218-7.9375 3.5-13.554687 10.800781-14.898437 19.371093-68.808594-31.753906-150.496094-8.367187-192.070313 54.988281l-7.039062 10.710938c-6.636719 10.09375-6.535157 23.191406.25 33.183594 6.785156 9.992187 18.921875 14.914062 30.75 12.46875 1.273437-.308594 2.523437-.695313 3.746093-1.160156 3.320313 18.132812 19.113282 31.316406 37.546876 31.34375 2.625-.003907 5.246093-.269532 7.816406-.792969 1.96875-.453125 3.902344-1.050781 5.777344-1.792969 1.175781 12.777344 8.082031 24.335938 18.773437 31.429688h.050781l-64.621094 98.191406h-16.101562c-11.171875.027344-21.035156 7.296875-24.371094 17.957031-3.332031 10.664063.628906 22.253906 9.792969 28.644531l-14.25 21.664063h-188.585937c-15.804688-.03125-28.882813 12.289062-29.796876 28.066406-.457031 8.027344 2.453126 15.878906 8.027344 21.667969 6.011719 6.363281 14.371094 9.980468 23.125 10h3.109375c-9.84375 12.863281-11.515625 30.203125-4.304687 44.707031 7.210937 14.503906 22.042968 23.640625 38.238281 23.558594 1.902344-.0625 3.800781-.253907 5.675781-.570313.898438.347656 1.851563.542969 2.816406.570313h392.167969c4.710938 0 8.53125-3.820313 8.53125-8.53125 0-4.714844-3.820312-8.535157-8.53125-8.535157h-127.875v-52.617187c3.621094-1.441406 6.632813-4.089844 8.535157-7.492187l36.972656-67.890626h14.183594c11.921874.03125 22.277343-8.195312 24.945312-19.8125 2.671875-11.617187-3.054688-23.539062-13.792969-28.714843 3.835938-13.378907-2.214843-27.609375-14.503906-34.132813-6.964844-3.789062-15.148437-4.648437-22.746094-2.390625-7.597656 2.261719-13.984375 7.453125-17.746093 14.429688l-10.53125 19.421875h-62.566407l58.386719-88.746094c6.921875 4.582031 15.039062 7.027344 23.339844 7.03125 2.914062.007812 5.824218-.277344 8.683594-.855469 1.445312-.363281 2.871093-.804687 4.269531-1.3125.460937 11.214844 5.832031 21.664063 14.683593 28.566407 8.851563 6.902343 20.292969 9.5625 31.285157 7.273437.222656 0 .425781-.144531.640625-.195313.863281 12.765626 9.785156 23.550782 22.160156 26.792969 12.378906 3.242188 25.441406-1.789062 32.453125-12.492187l7.023437-10.683594c41.507813-63.355469 30.710938-147.5-25.449218-198.324219zm-211.171875 294.144531h14.207031v17.066407h-25.429688zm68.828125 0-8.6875 17.066407h-28.867188v-17.066407zm-276.265625 102.402344c0-14.140625 11.460937-25.601562 25.597656-25.601562 14.140625 0 25.601563 11.460937 25.601563 25.601562 0 14.136719-11.460938 25.597656-25.601563 25.597656-14.136719 0-25.597656-11.460937-25.597656-25.597656zm59.460937 25.597656c11.667969-15.070312 11.667969-36.128906 0-51.199218h181.332032l14.617187 51.199218zm199.097656-51.199218h22.785157v42.667968h-10.632813zm33.410157-17.066406h-303.414063c-4.0625-.003907-7.949218-1.679688-10.742187-4.632813-2.332031-2.382813-3.566407-5.625-3.414063-8.953125.378906-6.777344 6.011719-12.066406 12.800782-12.015625h280.378906c6.417968.019531 12.300781-3.582031 15.199218-9.308594l12.644532-24.824219h29.015625zm66.097656-76.800782h-153.453125c-4.714844 0-8.535156-3.820312-8.535156-8.53125 0-4.714844 3.820312-8.535156 8.535156-8.535156h153.425781c4.714844 0 8.535157 3.820312 8.535157 8.535156 0 4.710938-3.820313 8.53125-8.535157 8.53125zm-28.800781-45.429687c1.628906-3.011719 4.394531-5.246094 7.679687-6.207031 3.25-.976563 6.757813-.597657 9.71875 1.050781 4.128907 2.234375 6.691407 6.5625 6.667969 11.257812-.03125 1.792969-.433594 3.5625-1.179688 5.195313h-29.011718zm19.710937-106.214844-56.832031-37.453125c17.050781-25.800781 37.363281-49.296875 60.425781-69.898438 22.828125-19.328124 34.808594-20.574218 38.316407-18.277343 9.589843 6.339843 3.140624 54.671875-41.933594 125.628906zm14.414063-135.824219c-7.773438 4.429688-15.097656 9.605469-21.871094 15.453125-24.285156 21.667969-45.664062 46.390625-63.605469 73.546875l-35.566406-23.398437c18.09375-26.113281 43.253906-46.539063 72.53125-58.878907 15.308594-6.433593 32.03125-8.753906 48.511719-6.722656zm35.320312 168.617188-35.550781-23.433594c25.507813-40.25 44.808594-83.507812 47.890625-113.859375 20.878906 33.84375 16.988281 88.277344-12.339844 137.292969zm-.855468-184.492188c1.234374-1.878906 3.167968-3.191406 5.367187-3.648437 2.203125-.457031 4.496094-.019531 6.375 1.21875 1.890625 1.246093 3.210937 3.191406 3.664063 5.410156.453124 2.21875.007812 4.527344-1.238282 6.414063-2.59375 3.917968-7.867187 5-11.792968 2.425781-3.925782-2.601563-5.003907-7.890625-2.40625-11.820313zm-109.523438 6.382813c9.640625-1.964844 19.464844-2.886719 29.304688-2.746094-2.980469.9375-5.972657 1.859375-8.96875 3.039063-32.515626 13.679687-60.433594 36.378906-80.460938 65.414062l-2.929688-1.875-18.445312-12.1875c19.902344-26.640625 48.914062-45.023438 81.5-51.644531zm-80.214844 88.902343c-5.058594 1.03125-10.246094-1.078124-13.148437-5.355468-2.902344-4.273438-2.949219-9.871094-.121094-14.195313l2.355469-3.574219 21.335937 14.070313-2.339843 3.558594c-1.851563 2.824219-4.746094 4.800781-8.054688 5.488281zm49.128906 29.386719c-7.6875 1.570313-15.613281-1.203125-20.640624-7.21875-5.03125-6.019531-6.351563-14.3125-3.441407-21.597656l34.875 22.988281c-2.9375 2.957032-6.683593 4.984375-10.769531 5.820313zm70.824219 45.226563c-6.644531 1.394531-13.570312.0625-19.222656-3.695313l-7.101563-4.675781-7.140624-4.710938c-9.019532-5.964843-13.296876-16.96875-10.675782-27.457031l54.46875 35.898438c-3.042968 2.277343-6.550781 3.851562-10.277344 4.609375zm50.203125 34.578125c-7.6875 1.574219-15.617187-1.199219-20.648437-7.214844-5.03125-6.019531-6.351563-14.316406-3.441407-21.601563l34.9375 22.953126c-2.945312 2.96875-6.699218 4.996093-10.796874 5.828124zm36.308594 26.921875c-3.320312.695312-6.78125.03125-9.609375-1.84375-5.890625-3.882813-7.523437-11.804688-3.652344-17.703125l2.355469-3.578125 21.335938 14.082031-2.332032 3.546875c-1.859375 2.808594-4.75 4.773438-8.046875 5.464844zm19.628906-23.457032-21.367187-14.132812c20.609375-32.695312 30.183593-71.148438 27.304687-109.695312 17.921875 39.839843 15.722656 85.84375-5.914062 123.792968zm0 0"/><path d="m77.039062 443.972656c0-4.714844-3.820312-8.535156-8.535156-8.535156-4.710937 0-8.53125 3.820312-8.53125 8.535156 0 4.710938 3.820313 8.53125 8.53125 8.53125 4.714844 0 8.535156-3.820312 8.535156-8.53125zm0 0"/><path d="m503.3125 469.570312h-8.53125c-4.714844 0-8.535156 3.820313-8.535156 8.535157 0 4.710937 3.820312 8.53125 8.535156 8.53125h8.53125c4.714844 0 8.535156-3.820313 8.535156-8.53125 0-4.714844-3.820312-8.535157-8.535156-8.535157zm0 0"/><path d="m131.523438 94.640625c12.5-30.136719 1.957031-64.910156-25.171876-83.035156-27.128906-18.128907-63.285156-14.558594-86.347656 8.523437-23.0625 23.085938-26.597656 59.246094-8.445312 86.359375 18.148437 27.113281 52.929687 37.621094 83.058594 25.09375 16.707031-6.945312 29.976562-20.226562 36.90625-36.941406zm-43.441407 21.179687c-12.523437 5.238282-26.621093 5.238282-39.144531 0-22.535156-9.335937-35.335938-33.289062-30.578125-57.214843 4.761719-23.921875 25.757813-41.152344 50.152344-41.152344 24.390625 0 45.386719 17.230469 50.148437 41.152344 4.757813 23.925781-8.042968 47.878906-30.578125 57.214843zm0 0"/><path d="m151.886719 112.324219 7.867187 3.265625c1.035156.425781 2.144532.644531 3.265625.648437 4.074219.007813 7.585938-2.867187 8.382813-6.863281.796875-3.992188-1.339844-7.996094-5.105469-9.554688l-7.875-3.265624c-4.355469-1.804688-9.347656.261718-11.152344 4.617187-1.804687 4.351563.261719 9.347656 4.617188 11.152344zm0 0"/><path d="m24.738281 151.976562-3.269531 7.886719c-1.226562 2.828125-.832031 6.097657 1.035156 8.554688 1.863282 2.457031 4.90625 3.714843 7.960938 3.292969 3.058594-.421876 5.644531-2.460938 6.773437-5.328126l3.261719-7.886718c1.292969-2.839844.933594-6.15625-.941406-8.652344-1.871094-2.496094-4.953125-3.773438-8.042969-3.328125-3.085937.445313-5.6875 2.539063-6.777344 5.460937zm0 0"/><path d="m101.136719 147.351562c-4.355469 1.800782-6.425781 6.789063-4.625 11.144532l3.269531 7.886718c1.316406 3.191407 4.429688 5.273438 7.882812 5.273438 1.121094-.003906 2.226563-.222656 3.261719-.648438 4.351563-1.804687 6.417969-6.792968 4.617188-11.144531l-3.261719-7.886719c-1.800781-4.351562-6.789062-6.421874-11.144531-4.625zm0 0"/><path d="m155.152344 41.128906c1.121094 0 2.234375-.21875 3.269531-.648437l7.875-3.269531c2.882813-1.121094 4.929687-3.714844 5.355469-6.777344.421875-3.0625-.84375-6.117188-3.3125-7.980469-2.464844-1.863281-5.75-2.246094-8.578125-1l-7.875 3.257813c-3.765625 1.558593-5.902344 5.558593-5.109375 9.550781.796875 3.996093 4.304687 6.871093 8.375 6.867187zm0 0"/></svg>