<svg xmlns="http://www.w3.org/2000/svg" width="398.007" height="495.214" viewBox="0 0 398.007 495.214">
  <g id="_003-shield" data-name="003-shield" transform="translate(-0.109 -0.001)">
    <path id="Path_44" data-name="Path 44" d="M199.113,370.078A122.473,122.473,0,1,0,76.641,247.605,122.471,122.471,0,0,0,199.113,370.078Zm0-232.945A110.473,110.473,0,1,1,88.641,247.605,110.47,110.47,0,0,1,199.113,137.133Zm0,0" fill="#1a6fb0"/>
    <path id="Path_45" data-name="Path 45" d="M177.883,284.316a6,6,0,0,0,8.461.359l71.281-65.289a6,6,0,0,0-8.105-8.852l-66.871,61.25-33.586-36.422a6,6,0,1,0-8.82,8.137Zm0,0" fill="#1a6fb0"/>
    <path id="Path_46" data-name="Path 46" d="M394.945,95.586,201.664.613a5.908,5.908,0,0,0-5.238,0L3.262,95.324a5.807,5.807,0,0,0-3.148,5.387v177C.113,324.145,30,381.02,68.383,407.2l127.441,86.977a5.846,5.846,0,0,0,3.336,1.043,5.926,5.926,0,0,0,3.355-1.043L329.848,407.2c38.391-26.18,68.266-83.055,68.266-129.492V100.973A5.84,5.84,0,0,0,394.945,95.586ZM386.113,277.7c0,42.879-27.586,95.4-63.039,119.57L199.02,481.949,75.1,397.273C39.648,373.105,12.113,320.582,12.113,277.7V104.453l187-91.77,187,92.027Zm0,0" fill="#1a6fb0"/>
    <path id="Path_47" data-name="Path 47" d="M29.684,112.035a6.191,6.191,0,0,0-3.57,5.387V277.7c0,37.211,26.2,86.371,56.969,107.348l112.543,76.684a6.175,6.175,0,0,0,3.434,1.043,6.077,6.077,0,0,0,3.406-1.043l112.66-76.68c30.77-20.98,56.988-70.137,56.988-107.352V117.664a6.2,6.2,0,0,0-3.566-5.387L201.863,30.457a6.323,6.323,0,0,0-5.441,0Zm330.43,9.363V277.7c0,33.773-23.809,78.391-51.738,97.434l-109.16,74.379L89.9,375.137C61.969,356.1,38.113,311.48,38.113,277.7V121.164l161-78.641Zm0,0" fill="#1a6fb0"/>
  </g>
</svg>
