<svg xmlns="http://www.w3.org/2000/svg" width="510.921" height="512.144" viewBox="0 0 510.921 512.144">
  <g id="_001-tyre" data-name="001-tyre" transform="translate(-0.072)">
    <path id="Path_1" data-name="Path 1" d="M291.246,146.688c98.824,0,208.922-30.117,208.922-73.344S390.07,0,291.246,0,82.324,30.172,82.324,73.344,192.43,146.688,291.246,146.688ZM164.738,109.715a9.143,9.143,0,1,1,9.141-9.145A9.144,9.144,0,0,1,164.738,109.715ZM397.988,59.8a15.018,15.018,0,0,1,0,27.078,239.51,239.51,0,0,1-95.516,19.285h-.1q-5.4.152-11.125.156c-59.9,0-94.6-13.6-106.742-19.449a15.021,15.021,0,0,1,0-27.082c12.141-5.852,46.84-19.445,106.742-19.445S385.855,53.941,397.988,59.8ZM117.2,65.434c3.785-25.453,63.613-42.312,81.855-46.875A9.143,9.143,0,1,1,203.492,36.3c-34.512,8.641-67.016,23.773-68.215,31.828-.1.691,1.4,3.145,6.7,6.324a9.144,9.144,0,1,1-9.418,15.672C118.152,81.453,116.281,71.91,117.2,65.434Zm0,0" fill="#19b7ea"/>
    <path id="Path_2" data-name="Path 2" d="M299.73,87.844a247.628,247.628,0,0,0,83.52-14.5,253.7,253.7,0,0,0-92-14.7,253.412,253.412,0,0,0-92.031,14.7,247.723,247.723,0,0,0,83.539,14.5C288.164,87.715,293.973,87.715,299.73,87.844Zm0,0" fill="#19b7ea"/>
    <path id="Path_3" data-name="Path 3" d="M107.848,264.23A500.157,500.157,0,0,0,220.508,276.3a536.151,536.151,0,0,0,76.91-5.43c-2.074,0-4.07.172-6.172.172A511.058,511.058,0,0,1,172.391,258c-29.367-7.043-65.914-15.809-89.9-42.133A116.259,116.259,0,0,1,55.938,159c-28.344,13.027-44.344,28.742-44.344,43.977C11.594,226.449,49.371,250.516,107.848,264.23Zm0,0" fill="#19b7ea"/>
    <path id="Path_4" data-name="Path 4" d="M38.207,364.645a110.762,110.762,0,0,0-.4,41.672,236.669,236.669,0,0,0,7.316,28.426,71.506,71.506,0,0,0,10.926,23.426,96.23,96.23,0,0,0,30.344,21.941,237.31,237.31,0,0,0,42.242,15.9,398.474,398.474,0,0,0,53.613,10.973,532.6,532.6,0,0,0,61.887,4.855q6.264.164,12.488.164a425.12,425.12,0,0,0,150.445-23.352,163,163,0,0,0,37.953-18.914c23.121-16.605,31.652-55.016,31.938-82.855a119.554,119.554,0,0,0-2.91-27.125C446.008,397.477,360.5,424.23,256.621,424.23c-92.715,0-174.3-21.469-209.086-54.777C44.3,367.938,41.254,366.281,38.207,364.645Zm0,0" fill="#19b7ea"/>
    <path id="Path_5" data-name="Path 5" d="M442.879,229.484a8.75,8.75,0,0,1,4.16-1.957,8.155,8.155,0,0,1,1.07.059A85.7,85.7,0,0,0,493.668,192.8a144.764,144.764,0,0,0,13.414-36.453,124.185,124.185,0,0,0,1.434-55.609c-28.223,37.605-113.609,64.25-217.27,64.25-65.617,0-123.875-10.691-164.984-28.07a8.927,8.927,0,0,1-2.742-1.172A122.782,122.782,0,0,1,73.875,100.57,119.743,119.743,0,0,0,71,131.328c.156,3.656.484,7.563.914,11.594a9.073,9.073,0,0,1,.438,3.656,104.232,104.232,0,0,0,23.68,56.949c20.207,22.164,53.727,30.172,80.66,36.664a492.232,492.232,0,0,0,114.543,12.535,486.87,486.87,0,0,0,119-13.621C421.313,236.324,432.375,233.227,442.879,229.484Zm0,0" fill="#19b7ea"/>
    <path id="Path_6" data-name="Path 6" d="M424.594,350.508a147.588,147.588,0,0,1-36.141,21.176A366.955,366.955,0,0,1,281.063,397.5a571.844,571.844,0,0,1-60.535,3.164c-15.9,0-31.746-.641-47.1-1.895-3.9-.32-7.625-.758-11.418-1.152a523.759,523.759,0,0,0,94.609,8.328c98.816,0,208.914-30.113,208.914-73.324a36.092,36.092,0,0,0-14.391-25.492A87.334,87.334,0,0,1,424.594,350.508Zm0,0" fill="#19b7ea"/>
    <path id="Path_7" data-name="Path 7" d="M15.434,319.863a52.037,52.037,0,0,0,10.715,15.25A61.873,61.873,0,0,0,37.32,343.16c.176.125.395.191.559.328,1.7,1.016,3.348,2.039,5.129,3.055,4.07,2.32,8.34,4.488,12.8,6.563l.246.1A254.5,254.5,0,0,0,99.2,368.156a439.738,439.738,0,0,0,75.73,12.387,567.211,567.211,0,0,0,104.23-1.223,349.677,349.677,0,0,0,102.07-24.414,129.88,129.88,0,0,0,31.781-18.5c18.285-15.078,23.973-42.687,26.887-65.051a118.174,118.174,0,0,0,.715-21.8c-8.613,2.742-17.324,5.148-25.82,7.313-4.672,1.191-9.609,2.078-14.41,3.109a220.76,220.76,0,0,1-25.828,11.117c-.246.094-.512.176-.766.246a468.658,468.658,0,0,1-153.281,23.242,518.751,518.751,0,0,1-116.844-12.59C53.6,270.254,18.871,252.188,3.09,230.539A122.084,122.084,0,0,0,.777,244.848a112.039,112.039,0,0,0,.914,31.523A181.265,181.265,0,0,0,15.434,319.863Zm0,0" fill="#19b7ea"/>
  </g>
</svg>
