<svg xmlns="http://www.w3.org/2000/svg" width="559.46" height="559.459" viewBox="0 0 559.46 559.459">
  <g id="_002-car" data-name="002-car" transform="translate(0.001)">
    <g id="Group_2" data-name="Group 2" transform="translate(472.966 113.862)">
      <g id="Group_1" data-name="Group 1">
        <path id="Path_8" data-name="Path 8" d="M511.126,139.238A26.853,26.853,0,0,1,484.3,112.415a8.212,8.212,0,0,0-16.423,0,26.853,26.853,0,0,1-26.823,26.823,8.212,8.212,0,0,0,0,16.423,26.854,26.854,0,0,1,26.823,26.823,8.212,8.212,0,0,0,16.423,0,26.853,26.853,0,0,1,26.823-26.823,8.212,8.212,0,1,0,0-16.423Zm-35.034,17.919a43.682,43.682,0,0,0-9.707-9.707,43.66,43.66,0,0,0,9.707-9.707,43.682,43.682,0,0,0,9.707,9.707A43.683,43.683,0,0,0,476.092,157.157Z" transform="translate(-432.844 -104.203)" fill="#19b7ea"/>
      </g>
    </g>
    <g id="Group_4" data-name="Group 4" transform="translate(-0.001 113.862)">
      <g id="Group_3" data-name="Group 3">
        <path id="Path_9" data-name="Path 9" d="M78.281,139.238a26.854,26.854,0,0,1-26.823-26.823,8.212,8.212,0,1,0-16.423,0A26.854,26.854,0,0,1,8.211,139.238a8.212,8.212,0,1,0,0,16.423,26.854,26.854,0,0,1,26.823,26.823,8.212,8.212,0,0,0,16.423,0,26.854,26.854,0,0,1,26.823-26.823,8.212,8.212,0,1,0,0-16.423ZM43.246,157.157a43.66,43.66,0,0,0-9.707-9.707,43.636,43.636,0,0,0,9.707-9.707,43.659,43.659,0,0,0,9.707,9.707A43.706,43.706,0,0,0,43.246,157.157Z" transform="translate(0.001 -104.203)" fill="#19b7ea"/>
      </g>
    </g>
    <g id="Group_6" data-name="Group 6" transform="translate(227.724)">
      <g id="Group_5" data-name="Group 5">
        <path id="Path_10" data-name="Path 10" d="M304.2,43.793A35.622,35.622,0,0,1,268.622,8.21a8.211,8.211,0,0,0-16.422,0,35.623,35.623,0,0,1-35.582,35.582,8.212,8.212,0,0,0,0,16.423A35.623,35.623,0,0,1,252.2,95.8a8.212,8.212,0,0,0,16.423,0,35.623,35.623,0,0,1,35.582-35.582,8.212,8.212,0,1,0,0-16.424ZM260.412,67.776A52.459,52.459,0,0,0,244.639,52a52.459,52.459,0,0,0,15.773-15.772A52.468,52.468,0,0,0,276.184,52,52.468,52.468,0,0,0,260.412,67.776Z" transform="translate(-208.406)" fill="#19b7ea"/>
      </g>
    </g>
    <g id="Group_8" data-name="Group 8" transform="translate(106.124 175.173)">
      <g id="Group_7" data-name="Group 7">
        <path id="Path_11" data-name="Path 11" d="M441.685,262.137l-31.942-90.5a17,17,0,0,0-16-11.322H145.523a17,17,0,0,0-16,11.321l-31.942,90.5a8.293,8.293,0,0,0,7.743,10.944H433.942a8.213,8.213,0,0,0,7.743-10.944Zm-324.758-5.479L145.006,177.1a.563.563,0,0,1,.516-.365H393.741a.565.565,0,0,1,.517.366l28.079,79.557Z" transform="translate(-97.122 -160.313)" fill="#19b7ea"/>
      </g>
    </g>
    <g id="Group_10" data-name="Group 10" transform="translate(384.286 385.381)">
      <g id="Group_9" data-name="Group 9">
        <path id="Path_12" data-name="Path 12" d="M403.692,352.689c-29.162,0-52,15.149-52,34.488s22.843,34.488,52,34.488,52-15.149,52-34.488S432.853,352.689,403.692,352.689Zm0,52.552c-20.366,0-35.582-9.537-35.582-18.064s15.216-18.064,35.582-18.064,35.582,9.537,35.582,18.064S424.057,405.241,403.692,405.241Z" transform="translate(-351.687 -352.689)" fill="#19b7ea"/>
      </g>
    </g>
    <g id="Group_12" data-name="Group 12" transform="translate(68.974 385.381)">
      <g id="Group_11" data-name="Group 11">
        <path id="Path_13" data-name="Path 13" d="M115.128,352.689c-29.162,0-52,15.149-52,34.488s22.843,34.488,52,34.488,52-15.149,52-34.488S144.289,352.689,115.128,352.689Zm0,52.552c-20.365,0-35.582-9.537-35.582-18.064s15.217-18.064,35.582-18.064,35.582,9.537,35.582,18.064S135.493,405.241,115.128,405.241Z" transform="translate(-63.123 -352.689)" fill="#19b7ea"/>
      </g>
    </g>
    <g id="Group_14" data-name="Group 14" transform="translate(7.663 148.897)">
      <g id="Group_13" data-name="Group 13">
        <path id="Path_14" data-name="Path 14" d="M540.744,250.129H496.951a8.211,8.211,0,0,0-7.966,6.22l-5.768,23.072-40.343-114.3a43.312,43.312,0,0,0-40.78-28.853H153.875a43.312,43.312,0,0,0-40.78,28.854l-40.342,114.3-5.768-23.073a8.212,8.212,0,0,0-7.966-6.22H15.225a8.211,8.211,0,0,0-8.212,8.212v35.035a8.211,8.211,0,0,0,8.212,8.212H60.579L32.585,340.778a43.009,43.009,0,0,0-8.054,25.136V468.548a43.207,43.207,0,0,0,17.531,34.745c0,.1-.014.191-.014.288v26.276a16.988,16.988,0,0,0,16.97,16.97h52.552a16.988,16.988,0,0,0,16.97-16.97V511.794H427.428v18.064a16.988,16.988,0,0,0,16.97,16.97h52.552a16.988,16.988,0,0,0,16.97-16.97V503.582c0-.1-.011-.192-.014-.289a43.207,43.207,0,0,0,17.531-34.745V365.914a43.005,43.005,0,0,0-8.055-25.136l-27.994-39.191h45.356a8.211,8.211,0,0,0,8.212-8.212V258.341A8.208,8.208,0,0,0,540.744,250.129ZM23.436,285.163V266.551H52.607l4.653,18.612Zm88.682,244.7a.548.548,0,0,1-.547.547H59.019a.548.548,0,0,1-.547-.547V511.794h53.647v18.064Zm385.38,0a.548.548,0,0,1-.547.547H444.4a.548.548,0,0,1-.547-.547V511.794H497.5Zm-9.305-34.488H67.777a26.867,26.867,0,0,1-25.533-18.612H513.724A26.866,26.866,0,0,1,488.192,495.371ZM348.6,406.69V425.3H207.368V406.69ZM208.659,390.267a26.866,26.866,0,0,1,25.533-18.612h87.587a26.867,26.867,0,0,1,25.533,18.612ZM348.6,441.724v18.612H207.368V441.724Zm161.419-91.4a26.672,26.672,0,0,1,5,15.591v94.424H365.024V398.478a43.3,43.3,0,0,0-43.245-43.246H234.191a43.3,43.3,0,0,0-43.246,43.246v61.858H40.953V365.913a26.672,26.672,0,0,1,5-15.591l34.812-48.736H383.087a8.212,8.212,0,1,0,0-16.423H88.141l40.439-114.579a26.867,26.867,0,0,1,25.295-17.9H402.095a26.868,26.868,0,0,1,25.295,17.9l40.438,114.579H418.122a8.212,8.212,0,1,0,0,16.423h57.086Zm22.513-65.159H498.708l4.653-18.612h29.172Z" transform="translate(-7.013 -136.266)" fill="#19b7ea"/>
      </g>
    </g>
    <g id="Group_16" data-name="Group 16" transform="translate(86.491 359.105)">
      <g id="Group_15" data-name="Group 15">
        <path id="Path_15" data-name="Path 15" d="M139.918,328.642H87.366a8.212,8.212,0,0,0,0,16.423h52.552a8.212,8.212,0,1,0,0-16.423Z" transform="translate(-79.154 -328.642)" fill="#19b7ea"/>
      </g>
    </g>
    <g id="Group_18" data-name="Group 18" transform="translate(401.803 359.105)">
      <g id="Group_17" data-name="Group 17">
        <path id="Path_16" data-name="Path 16" d="M428.482,328.642H375.93a8.212,8.212,0,0,0,0,16.423h52.552a8.212,8.212,0,1,0,0-16.423Z" transform="translate(-367.718 -328.642)" fill="#19b7ea"/>
      </g>
    </g>
  </g>
</svg>
