<svg xmlns="http://www.w3.org/2000/svg" width="623.204" height="407.927" viewBox="0 0 623.204 407.927">
  <g id="_003-sedan-car-front" data-name="003-sedan-car-front" transform="translate(0 -8.463)">
    <path id="Path_17" data-name="Path 17" d="M584.6,138.7a18.61,18.61,0,0,0-1.272-1.425L561.489,116.2C579.6,112.089,599.1,96.914,599.1,81.346c0-18.138-25.172-24.574-46.655-24.574-22.463,0-25.07,15.391-25.337,26.266L470.761,28.712C459.313,17.379,437.6,8.463,421.371,8.463H201.833c-16.217,0-37.917,8.916-49.377,20.249L96.121,83.037c-.293-10.875-2.9-26.266-25.337-26.266-21.509,0-46.668,6.436-46.668,24.574,0,15.569,19.512,30.743,37.624,34.851L39.9,137.273c-.5.471-.839.941-1.272,1.425C15.263,158.667,0,195.707,0,222.583v79.866a72.851,72.851,0,0,0,20,50.089V383.51c0,18.113,15.162,32.88,33.808,32.88h40.88c18.647,0,33.8-14.742,33.8-32.88v-7.924H494.737v7.924c0,18.138,15.136,32.88,33.808,32.88h40.868c18.659,0,33.8-14.767,33.8-32.88V352.538a72.793,72.793,0,0,0,20-50.089V222.583C623.23,195.707,607.966,158.667,584.6,138.7ZM173.15,52.854c7.924-6.6,21.776-11.613,28.682-11.613H421.4c6.907,0,20.758,5.011,28.682,11.613l73.887,71.611H99.276ZM25.35,210.5c0-19.664,15.391-35.627,34.393-35.627s81.049,36.429,81.049,56.093-62.058,15.111-81.049,15.111S25.35,230.176,25.35,210.5Zm103.142,130.07h-13.1l-38.858.064c-10.786-3.358-18.392-7.276-23.773-11.486a33.721,33.721,0,0,1-6.436-6.538,25.581,25.581,0,0,1-3.612-6.6c-4.833-13.661,5.151-26.215,5.151-26.215h66.319L158.4,340.543l-29.9.025Zm278.48.025H216.257a36.036,36.036,0,0,1-36.022-36.009H442.994A36.02,36.02,0,0,1,406.973,340.594Zm8.369-60.583H207.887c-21.623,0-39.176-26.66-39.176-59.54H454.518C454.518,253.364,436.965,280.011,415.342,280.011ZM580.53,316.033a25.756,25.756,0,0,1-3.625,6.589,33,33,0,0,1-6.436,6.538c-5.368,4.21-12.987,8.153-23.773,11.486l-38.858-.064h-43.03l44.238-50.751h66.307C575.353,289.818,585.351,302.347,580.53,316.033Zm-17.044-69.957c-18.977,0-81.036,4.528-81.036-15.111s62.058-56.093,81.036-56.093c19,0,34.393,15.963,34.393,35.627S582.489,246.076,563.486,246.076Z" transform="translate(0 0)" fill="#19b7ea"/>
  </g>
</svg>
